<svg width="14" height="14" viewBox="0 0 14 14" fill="none" xmlns="http://www.w3.org/2000/svg">
<g clip-path="url(#clip0_330_495)">
<path d="M7.23915 13.8098C3.67453 13.8098 0.785156 10.9205 0.785156 7.35585C0.785156 3.79123 3.67453 0.901855 7.23915 0.901855C10.8038 0.901855 13.6932 3.79123 13.6932 7.35585C13.6932 10.9205 10.8038 13.8098 7.23915 13.8098ZM5.67245 6.71207L7.23915 5.14536L8.80667 6.71287L9.7183 5.80125L7.23915 3.3221L4.76082 5.80044L5.67245 6.71207ZM3.20541 7.35585L4.11703 8.26748L5.02866 7.35585L4.11703 6.44423L3.20541 7.35585ZM5.67245 7.99964L4.75961 8.91006L4.76082 8.91127L7.23915 11.3896L9.7183 8.91046V8.91006L8.80667 7.99843L7.23915 9.56635L5.67245 7.99964ZM9.44965 7.35585L10.3613 8.26748L11.2729 7.35585L10.3613 6.44423L9.44965 7.35585ZM8.16369 7.35505H8.16409L7.23915 6.43051L6.55543 7.11383L6.47677 7.19249L6.31502 7.35464L6.31341 7.35585L6.31502 7.35706L7.23875 8.28119L8.16409 7.35626L8.1645 7.35585L8.16369 7.35545V7.35505Z" fill="#FCBD43"/>
</g>
<defs>
<clipPath id="clip0_330_495">
<rect width="12.908" height="12.908" fill="white" transform="translate(0.785156 0.901855)"/>
</clipPath>
</defs>
</svg>
