<svg width="15" height="15" viewBox="0 0 15 15" fill="none" xmlns="http://www.w3.org/2000/svg">
<path d="M7.5 15C3.35766 15 0 11.6423 0 7.5C0 3.35766 3.35766 0 7.5 0C11.6423 0 15 3.35766 15 7.5C15 11.6423 11.6423 15 7.5 15ZM5.67938 6.75188L7.5 4.93125L9.32156 6.75281L10.3809 5.69344L7.5 2.8125L4.62 5.6925L5.67938 6.75188ZM2.8125 7.5L3.87188 8.55938L4.93125 7.5L3.87188 6.44062L2.8125 7.5ZM5.67938 8.24813L4.61859 9.30609L4.62 9.3075L7.5 12.1875L10.3809 9.30656V9.30609L9.32156 8.24672L7.5 10.0687L5.67938 8.24813ZM10.0687 7.5L11.1281 8.55938L12.1875 7.5L11.1281 6.44062L10.0687 7.5ZM8.57437 7.49906H8.57484L7.5 6.42469L6.70547 7.21875L6.61406 7.31016L6.42609 7.49859L6.42422 7.5L6.42609 7.50141L7.49953 8.57531L8.57484 7.50047L8.57531 7.5L8.57437 7.49953V7.49906Z" fill="#FCBD43"/>
</svg>
