<svg width="20" height="20" viewBox="0 0 20 20" fill="none" xmlns="http://www.w3.org/2000/svg">
<path d="M10 20C4.47688 20 0 15.5231 0 10C0 4.47688 4.47688 0 10 0C15.5231 0 20 4.47688 20 10C20 15.5231 15.5231 20 10 20ZM7.5725 9.0025L10 6.575L12.4288 9.00375L13.8412 7.59125L10 3.75L6.16 7.59L7.5725 9.0025ZM3.75 10L5.1625 11.4125L6.575 10L5.1625 8.5875L3.75 10ZM7.5725 10.9975L6.15812 12.4081L6.16 12.41L10 16.25L13.8412 12.4088V12.4081L12.4288 10.9956L10 13.425L7.5725 10.9975ZM13.425 10L14.8375 11.4125L16.25 10L14.8375 8.5875L13.425 10ZM11.4325 9.99875H11.4331L10 8.56625L8.94063 9.625L8.81875 9.74687L8.56812 9.99813L8.56563 10L8.56812 10.0019L9.99937 11.4338L11.4331 10.0006L11.4338 10L11.4325 9.99937V9.99875Z" fill="#FCBD43"/>
</svg>
