<svg width="18" height="18" viewBox="0 0 18 18" fill="none" xmlns="http://www.w3.org/2000/svg">
<path fill-rule="evenodd" clip-rule="evenodd" d="M2.70515 1.29094C2.31463 0.900416 1.68147 0.900415 1.29094 1.29094C0.900416 1.68146 0.900415 2.31463 1.29094 2.70515L7.58622 9.00045L1.29099 15.2957C0.90047 15.6862 0.900471 16.3194 1.291 16.7099C1.68152 17.1004 2.31469 17.1004 2.70521 16.7099L9.00043 10.4147L15.2956 16.7099C15.6862 17.1004 16.3193 17.1004 16.7099 16.7099C17.1004 16.3194 17.1004 15.6862 16.7099 15.2957L10.4146 9.00045L16.7099 2.70515C17.1004 2.31463 17.1004 1.68146 16.7099 1.29094C16.3194 0.900415 15.6862 0.900416 15.2957 1.29094L9.00043 7.58623L2.70515 1.29094Z" fill="#2B2D65"/>
</svg>
