<svg width="20" height="18" viewBox="0 0 20 18" fill="none" xmlns="http://www.w3.org/2000/svg">
<path d="M13.9667 3.85714V1.68571C13.9667 1.50385 13.895 1.32944 13.7675 1.20084C13.64 1.07224 13.467 1 13.2867 1H2.18C1.99965 1 1.82669 1.07224 1.69917 1.20084C1.57164 1.32944 1.5 1.50385 1.5 1.68571V12.8857C1.5 13.0676 1.57164 13.242 1.69917 13.3706C1.82669 13.4992 1.99965 13.5714 2.18 13.5714H6.03334" stroke="#2B2D65" stroke-width="1.5" stroke-linecap="round" stroke-linejoin="round"/>
<path d="M17.8199 16.9999H6.7132C6.53286 16.9999 6.3599 16.9277 6.23237 16.7991C6.10485 16.6705 6.0332 16.496 6.0332 16.3142V5.11418C6.0332 4.93232 6.10485 4.7579 6.23237 4.62931C6.3599 4.50071 6.53286 4.42847 6.7132 4.42847H17.8199C18.0002 4.42847 18.1732 4.50071 18.3007 4.62931C18.4282 4.7579 18.4999 4.93232 18.4999 5.11418V16.3142C18.4999 16.496 18.4282 16.6705 18.3007 16.7991C18.1732 16.9277 18.0002 16.9999 17.8199 16.9999Z" stroke="#2B2D65" stroke-width="1.5" stroke-linecap="round" stroke-linejoin="round"/>
</svg>
