<svg width="25" height="24" viewBox="0 0 25 24" fill="none" xmlns="http://www.w3.org/2000/svg">
<g clip-path="url(#clip0_388_9149)">
<path d="M12.5638 1.44564L7.35132 6.98064L8.51569 1.44564L12.5638 1.44564ZM16.9569 1.44564L18.1438 6.98064L12.9876 1.44564L16.9569 1.44564ZM17.9057 8.16001L7.58944 8.16001L12.7494 2.61189L17.9057 8.16001ZM6.13069 8.16001H1.35319L7.48257 1.71189L6.13069 8.16001ZM6.18694 9.12001L10.8576 21.435L1.31757 9.12001H6.18694ZM7.22944 9.12001L18.2694 9.12001L12.7494 23.4319L7.22944 9.12001ZM19.3644 8.16001L17.9882 1.68564L24.1063 8.16001L19.3644 8.16001ZM14.6451 21.4256L19.3138 9.12001L24.1644 9.12001L14.6451 21.4256Z" fill="#E562DF"/>
</g>
<defs>
<clipPath id="clip0_388_9149">
<rect width="24" height="24" fill="white" transform="translate(0.75)"/>
</clipPath>
</defs>
</svg>
