<svg width="24" height="24" viewBox="0 0 24 24" fill="none" xmlns="http://www.w3.org/2000/svg">
<g clip-path="url(#clip0_388_9139)">
<path d="M11.8139 1.44564L6.60138 6.98064L7.76575 1.44564L11.8139 1.44564ZM16.207 1.44564L17.3939 6.98064L12.2376 1.44564L16.207 1.44564ZM17.1558 8.16001L6.8395 8.16001L11.9995 2.61189L17.1558 8.16001ZM5.38075 8.16001H0.603253L6.73263 1.71189L5.38075 8.16001ZM5.437 9.12001L10.1076 21.435L0.567627 9.12001H5.437ZM6.4795 9.12001L17.5195 9.12001L11.9995 23.4319L6.4795 9.12001ZM18.6145 8.16001L17.2383 1.68564L23.3564 8.16001L18.6145 8.16001ZM13.8951 21.4256L18.5639 9.12001L23.4145 9.12001L13.8951 21.4256Z" fill="#96A2B0"/>
</g>
<defs>
<clipPath id="clip0_388_9139">
<rect width="24" height="24" fill="white"/>
</clipPath>
</defs>
</svg>
