<svg width="25" height="24" viewBox="0 0 25 24" fill="none" xmlns="http://www.w3.org/2000/svg">
<g clip-path="url(#clip0_388_9129)">
<path d="M12.3138 1.44564L7.10132 6.98064L8.26569 1.44564L12.3138 1.44564ZM16.7069 1.44564L17.8938 6.98064L12.7376 1.44564L16.7069 1.44564ZM17.6557 8.16001L7.33944 8.16001L12.4994 2.61189L17.6557 8.16001ZM5.88069 8.16001H1.10319L7.23257 1.71189L5.88069 8.16001ZM5.93694 9.12001L10.6076 21.435L1.06757 9.12001H5.93694ZM6.97944 9.12001L18.0194 9.12001L12.4994 23.4319L6.97944 9.12001ZM19.1144 8.16001L17.7382 1.68564L23.8563 8.16001L19.1144 8.16001ZM14.3951 21.4256L19.0638 9.12001L23.9144 9.12001L14.3951 21.4256Z" fill="#46D1E5"/>
</g>
<defs>
<clipPath id="clip0_388_9129">
<rect width="24" height="24" fill="white" transform="translate(0.5)"/>
</clipPath>
</defs>
</svg>
