<svg width="25" height="24" viewBox="0 0 25 24" fill="none" xmlns="http://www.w3.org/2000/svg">
<path d="M12.0639 1.44564L6.85138 6.98064L8.01575 1.44564L12.0639 1.44564ZM16.457 1.44564L17.6439 6.98064L12.4876 1.44564L16.457 1.44564ZM17.4058 8.16001L7.0895 8.16001L12.2495 2.61189L17.4058 8.16001ZM5.63075 8.16001H0.853253L6.98263 1.71189L5.63075 8.16001ZM5.687 9.12001L10.3576 21.435L0.817627 9.12001H5.687ZM6.7295 9.12001L17.7695 9.12001L12.2495 23.4319L6.7295 9.12001ZM18.8645 8.16001L17.4883 1.68564L23.6064 8.16001L18.8645 8.16001ZM14.1451 21.4256L18.8139 9.12001L23.6645 9.12001L14.1451 21.4256Z" fill="#49CF6F"/>
</svg>
