<svg width="24" height="24" viewBox="0 0 24 24" fill="none" xmlns="http://www.w3.org/2000/svg">
<path d="M11.8138 1.44564L6.60132 6.98064L7.76569 1.44564L11.8138 1.44564ZM16.2069 1.44564L17.3938 6.98064L12.2376 1.44564L16.2069 1.44564ZM17.1557 8.16001L6.83944 8.16001L11.9994 2.61189L17.1557 8.16001ZM5.38069 8.16001H0.603192L6.73257 1.71189L5.38069 8.16001ZM5.43694 9.12001L10.1076 21.435L0.567566 9.12001H5.43694ZM6.47944 9.12001L17.5194 9.12001L11.9994 23.4319L6.47944 9.12001ZM18.6144 8.16001L17.2382 1.68564L23.3563 8.16001L18.6144 8.16001ZM13.8951 21.4256L18.5638 9.12001L23.4144 9.12001L13.8951 21.4256Z" fill="#F3AC40"/>
</svg>
