<svg width="18" height="18" viewBox="0 0 18 18" fill="none" xmlns="http://www.w3.org/2000/svg">
<path d="M8.88351 1.41846L5.07616 5.46137L5.92665 1.41846L8.88351 1.41846ZM12.0924 1.41846L12.9593 5.46137L9.19303 1.41846L12.0924 1.41846ZM12.7854 6.32282L5.25009 6.32282L9.0191 2.27032L12.7854 6.32282ZM4.18458 6.32282L0.694967 6.32282L5.17203 1.61293L4.18458 6.32282ZM4.22567 7.02403L7.63722 16.0192L0.668945 7.02403L4.22567 7.02403ZM4.98714 7.02403L13.0511 7.02403L9.0191 17.4778L4.98714 7.02403ZM13.8509 6.32282L12.8456 1.59376L17.3145 6.32282L13.8509 6.32282ZM10.4037 16.0124L13.8139 7.02403L17.3569 7.02403L10.4037 16.0124Z" fill="white"/>
</svg>
