<svg width="12" height="12" viewBox="0 0 12 12" fill="none" xmlns="http://www.w3.org/2000/svg">
<path d="M5.90694 0.722839L3.30069 3.49034L3.88288 0.722839L5.90694 0.722839ZM8.1035 0.722839L8.69694 3.49034L6.11881 0.722839L8.1035 0.722839ZM8.57788 4.08003L3.41975 4.08003L5.99975 1.30596L8.57788 4.08003ZM2.69038 4.08003H0.301627L3.36631 0.855965L2.69038 4.08003ZM2.7185 4.56003L5.05381 10.7175L0.283813 4.56003H2.7185ZM3.23975 4.56003L8.75975 4.56003L5.99975 11.716L3.23975 4.56003ZM9.30725 4.08003L8.61913 0.842839L11.6782 4.08003L9.30725 4.08003ZM6.94756 10.7128L9.28194 4.56003L11.7072 4.56003L6.94756 10.7128Z" fill="white"/>
</svg>
