<svg width="11" height="11" viewBox="0 0 11 11" fill="none" xmlns="http://www.w3.org/2000/svg">
<path d="M5.53761 1.34668L3.41547 3.60011L3.88952 1.34668L5.53761 1.34668ZM7.32616 1.34668L7.80937 3.60011L5.71013 1.34668L7.32616 1.34668ZM7.71242 4.08027H3.51242L5.61318 1.82149L7.71242 4.08027ZM2.91853 4.08027L0.973489 4.08027L3.46891 1.45508L2.91853 4.08027ZM2.94143 4.47111L4.84295 9.48485L0.958984 4.47111H2.94143ZM3.36585 4.47111L7.86051 4.47111L5.61318 10.2978L3.36585 4.47111ZM8.30631 4.08027L7.74601 1.44439L10.2368 4.08027L8.30631 4.08027ZM6.38494 9.48103L8.2857 4.47111H10.2605L6.38494 9.48103Z" fill="white"/>
</svg>
