<svg width="19" height="15" viewBox="0 0 19 15" fill="none" xmlns="http://www.w3.org/2000/svg">
<path d="M16.0843 1.29034C14.8733 0.734681 13.5747 0.325298 12.2169 0.0908273C12.1922 0.0863021 12.1675 0.0976109 12.1548 0.120229C11.9877 0.417274 11.8027 0.804794 11.6732 1.10938C10.2128 0.890749 8.75994 0.890749 7.3295 1.10938C7.19993 0.798023 7.00822 0.417274 6.84046 0.120229C6.82772 0.0983655 6.80302 0.0870568 6.77829 0.0908273C5.42126 0.324549 4.12265 0.733932 2.91091 1.29034C2.90042 1.29486 2.89143 1.30241 2.88546 1.3122C0.422268 4.99215 -0.252502 8.58166 0.0785176 12.1267C0.0800154 12.144 0.0897511 12.1606 0.103232 12.1711C1.72837 13.3646 3.3026 14.0891 4.8476 14.5694C4.87232 14.5769 4.89852 14.5679 4.91426 14.5475C5.27973 14.0484 5.60551 13.5222 5.88484 12.9688C5.90132 12.9364 5.88558 12.8979 5.85189 12.8851C5.33515 12.6891 4.8431 12.4501 4.36979 12.1787C4.33235 12.1568 4.32935 12.1033 4.36379 12.0776C4.46339 12.003 4.56302 11.9253 4.65813 11.8469C4.67534 11.8326 4.69932 11.8296 4.71955 11.8386C7.82902 13.2583 11.1954 13.2583 14.2682 11.8386C14.2884 11.8288 14.3124 11.8319 14.3303 11.8462C14.4255 11.9246 14.5251 12.003 14.6254 12.0776C14.6599 12.1033 14.6576 12.1568 14.6202 12.1787C14.1469 12.4554 13.6548 12.6891 13.1373 12.8844C13.1036 12.8972 13.0886 12.9364 13.1051 12.9688C13.3905 13.5214 13.7162 14.0477 14.075 14.5468C14.0899 14.5679 14.1169 14.5769 14.1416 14.5694C15.6941 14.0891 17.2683 13.3646 18.8935 12.1711C18.9077 12.1606 18.9167 12.1447 18.9182 12.1274C19.3144 8.029 18.2546 4.46893 16.109 1.31295C16.1038 1.30241 16.0948 1.29486 16.0843 1.29034ZM6.34918 9.96812C5.41302 9.96812 4.64165 9.10865 4.64165 8.05313C4.64165 6.99762 5.39806 6.13815 6.34918 6.13815C7.30777 6.13815 8.07168 7.00516 8.0567 8.05313C8.0567 9.10865 7.30028 9.96812 6.34918 9.96812ZM12.6625 9.96812C11.7264 9.96812 10.955 9.10865 10.955 8.05313C10.955 6.99762 11.7114 6.13815 12.6625 6.13815C13.6211 6.13815 14.385 7.00516 14.37 8.05313C14.37 9.10865 13.6211 9.96812 12.6625 9.96812Z" fill="#2B2D65"/>
</svg>
