<svg width="16" height="17" viewBox="0 0 16 17" fill="none" xmlns="http://www.w3.org/2000/svg">
<g clip-path="url(#clip0_114_605)">
<path d="M15.8432 8.68417C15.8432 8.14035 15.7991 7.59359 15.705 7.05859H8.15918V10.1392H12.4803C12.301 11.1328 11.7249 12.0117 10.8812 12.5703V14.5692H13.4592C14.9731 13.1758 15.8432 11.1181 15.8432 8.68417Z" fill="#2B2D65"/>
<path d="M8.15974 16.5002C10.3174 16.5002 12.137 15.7918 13.4627 14.5689L10.8847 12.57C10.1675 13.058 9.2415 13.3343 8.16268 13.3343C6.0756 13.3343 4.30598 11.9263 3.67104 10.0332H1.01074V12.0938C2.36882 14.7953 5.13494 16.5002 8.15974 16.5002Z" fill="#2B2D65"/>
<path d="M3.66754 10.0338C3.33243 9.04023 3.33243 7.96435 3.66754 6.97078V4.91016H1.01018C-0.124487 7.17067 -0.124487 9.83391 1.01018 12.0944L3.66754 10.0338Z" fill="#2B2D65"/>
<path d="M8.15974 3.66644C9.30029 3.6488 10.4026 4.07798 11.2286 4.86578L13.5127 2.58174C12.0664 1.22367 10.1469 0.477023 8.15974 0.500539C5.13494 0.500539 2.36882 2.20548 1.01074 4.90987L3.6681 6.9705C4.3001 5.07449 6.07266 3.66644 8.15974 3.66644Z" fill="#2B2D65"/>
</g>
<defs>
<clipPath id="clip0_114_605">
<rect width="16" height="16" fill="white" transform="translate(0 0.5)"/>
</clipPath>
</defs>
</svg>
