<svg width="44" height="42" viewBox="0 0 44 42" fill="none" xmlns="http://www.w3.org/2000/svg">
<path fill-rule="evenodd" clip-rule="evenodd" d="M22 0.555908C23.1046 0.555908 24 1.39269 24 2.42492V6.16294C24 7.19516 23.1046 8.03195 22 8.03195C20.8954 8.03195 20 7.19516 20 6.16294V2.42492C20 1.39269 20.8954 0.555908 22 0.555908ZM10.9998 3.31091C11.9563 2.79467 13.1795 3.1008 13.7319 3.99466L15.7319 7.23085C16.2843 8.12472 15.9567 9.26783 15.0002 9.78406C14.0437 10.3003 12.8205 9.99417 12.2681 9.10031L10.2681 5.86412C9.71567 4.97026 10.0433 3.82715 10.9998 3.31091ZM33.0002 3.31091C33.9567 3.82715 34.2843 4.97026 33.7319 5.86412L31.7319 9.10031C31.1795 9.99417 29.9563 10.3003 28.9998 9.78406C28.0433 9.26783 27.7157 8.12472 28.2681 7.23085L30.2681 3.99466C30.8205 3.1008 32.0437 2.79467 33.0002 3.31091ZM41.052 10.8354C41.6043 11.7294 41.2766 12.8724 40.32 13.3886L36.856 15.2576C35.8994 15.7737 34.6763 15.4674 34.124 14.5735C33.5717 13.6796 33.8994 12.5365 34.856 12.0204L38.32 10.1514C39.2766 9.63524 40.4997 9.94151 41.052 10.8354ZM2.94809 10.8352C3.5005 9.94138 4.72373 9.63525 5.68024 10.1515L9.14324 12.0205C10.0997 12.5367 10.4273 13.6798 9.87491 14.5737C9.3225 15.4676 8.09927 15.7737 7.14276 15.2575L3.67976 13.3884C2.72325 12.8722 2.39567 11.7291 2.94809 10.8352ZM0 21.115C0 20.0828 0.89543 19.246 2 19.246H6C7.10457 19.246 8 20.0828 8 21.115C8 22.1472 7.10457 22.984 6 22.984H2C0.89543 22.984 0 22.1472 0 21.115ZM36 21.115C36 20.0828 36.8954 19.246 38 19.246H42C43.1046 19.246 44 20.0828 44 21.115C44 22.1472 43.1046 22.984 42 22.984H38C36.8954 22.984 36 22.1472 36 21.115ZM9.87491 27.6563C10.4273 28.5502 10.0997 29.6933 9.14324 30.2095L5.68024 32.0785C4.72373 32.5948 3.5005 32.2887 2.94809 31.3948C2.39567 30.5009 2.72325 29.3578 3.67976 28.8416L7.14276 26.9726C8.09927 26.4563 9.3225 26.7625 9.87491 27.6563ZM34.124 27.6565C34.6763 26.7626 35.8994 26.4563 36.856 26.9725L40.32 28.8415C41.2766 29.3576 41.6043 30.5007 41.052 31.3946C40.4997 32.2885 39.2766 32.5948 38.32 32.0787L34.856 30.2097C33.8994 29.6935 33.5717 28.5505 34.124 27.6565ZM15 32.4449C15.9566 32.961 16.2843 34.1041 15.732 34.998L13.732 38.2352C13.1797 39.1291 11.9566 39.4354 11 38.9192C10.0434 38.4031 9.71566 37.26 10.268 36.3661L12.268 33.129C12.8203 32.2351 14.0434 31.9288 15 32.4449ZM29 32.4449C29.9566 31.9288 31.1797 32.2351 31.732 33.129L33.732 36.3661C34.2843 37.26 33.9566 38.4031 33 38.9192C32.0434 39.4354 30.8203 39.1291 30.268 38.2352L28.268 34.998C27.7157 34.1041 28.0434 32.961 29 32.4449ZM22 34.1981C23.1046 34.1981 24 35.0349 24 36.0671V39.8051C24 40.8373 23.1046 41.6741 22 41.6741C20.8954 41.6741 20 40.8373 20 39.8051V36.0671C20 35.0349 20.8954 34.1981 22 34.1981Z" fill="#2B2D65"/>
</svg>
