<svg width="27" height="25" viewBox="0 0 27 25" fill="none" xmlns="http://www.w3.org/2000/svg">
<path d="M25.0308 0.565674L15.0371 7.98815L16.8852 3.60899L25.0308 0.565674Z" fill="#E2761B"/>
<path fill-rule="evenodd" clip-rule="evenodd" d="M25.0746 0.541661C25.0865 0.563678 25.0805 0.591151 25.0604 0.606095L15.0666 8.02857C15.0484 8.04209 15.0234 8.04176 15.0056 8.02775C14.9877 8.01373 14.9815 7.98951 14.9903 7.96861L16.8384 3.58945C16.8438 3.5767 16.8542 3.56673 16.8671 3.56188L25.0128 0.51857C25.0362 0.509799 25.0626 0.519644 25.0746 0.541661ZM16.9227 3.64856L15.1547 7.83781L24.715 0.737222L16.9227 3.64856Z" fill="#E2761B"/>
<path d="M1.95898 0.565674L11.8724 8.05845L10.1147 3.60899L1.95898 0.565674Z" fill="#E4761B"/>
<path fill-rule="evenodd" clip-rule="evenodd" d="M1.9154 0.541484C1.92742 0.519589 1.95369 0.50983 1.97709 0.518563L10.1328 3.56188C10.1461 3.56686 10.1567 3.57727 10.162 3.59053L11.9197 8.04C11.9279 8.06097 11.9213 8.0849 11.9033 8.09854C11.8854 8.11219 11.8605 8.11222 11.8425 8.09862L1.92916 0.605842C1.90923 0.59078 1.90337 0.563379 1.9154 0.541484ZM2.26465 0.733274L11.7602 7.91027L10.0766 3.64833L2.26465 0.733274Z" fill="#E4761B"/>
<path d="M21.4351 17.771L18.7734 21.8488L24.4683 23.4157L26.1055 17.8614L21.4351 17.771Z" fill="#E4761B"/>
<path fill-rule="evenodd" clip-rule="evenodd" d="M21.3925 17.7435C21.402 17.729 21.4183 17.7204 21.4356 17.7207L26.106 17.8111C26.1217 17.8114 26.1364 17.819 26.1456 17.8317C26.1549 17.8443 26.1577 17.8606 26.1533 17.8756L24.5161 23.4299C24.5084 23.4562 24.481 23.4715 24.4545 23.4642L18.7596 21.8974C18.7441 21.8931 18.7316 21.8817 18.7259 21.8667C18.7202 21.8516 18.7221 21.8348 18.7308 21.8214L21.3925 17.7435ZM21.4615 17.8219L18.8528 21.8186L24.4336 23.3541L26.0381 17.9104L21.4615 17.8219Z" fill="#E4761B"/>
<path d="M0.905273 17.8614L2.53239 23.4157L8.22731 21.8488L5.56566 17.771L0.905273 17.8614Z" fill="#E4761B"/>
<path fill-rule="evenodd" clip-rule="evenodd" d="M5.56422 17.7207C5.58156 17.7204 5.59785 17.729 5.60733 17.7435L8.26898 21.8214C8.27776 21.8348 8.27959 21.8516 8.2739 21.8667C8.26821 21.8817 8.25568 21.8931 8.24019 21.8974L2.54527 23.4642C2.51879 23.4715 2.49136 23.4562 2.48364 23.4299L0.856522 17.8756C0.852115 17.8605 0.854971 17.8443 0.864247 17.8316C0.873523 17.819 0.888159 17.8114 0.903831 17.8111L5.56422 17.7207ZM0.971599 17.9104L2.5663 23.3541L8.14703 21.8186L5.5383 17.8219L0.971599 17.9104Z" fill="#E4761B"/>
<path d="M7.90628 10.8808L6.31934 13.2813L11.9741 13.5324L11.7732 7.45581L7.90628 10.8808Z" fill="#E4761B"/>
<path fill-rule="evenodd" clip-rule="evenodd" d="M11.7926 7.40962C11.8105 7.41733 11.8224 7.43468 11.823 7.45417L12.0239 13.5308C12.0244 13.5448 12.019 13.5583 12.009 13.5682C11.999 13.5781 11.9854 13.5833 11.9714 13.5827L6.31664 13.3316C6.29853 13.3308 6.28226 13.3203 6.27404 13.3042C6.26581 13.288 6.2669 13.2687 6.2769 13.2536L7.86384 10.8531C7.86626 10.8494 7.86916 10.8461 7.87245 10.8432L11.7394 7.41817C11.754 7.40524 11.7747 7.40191 11.7926 7.40962ZM7.94413 10.9141L6.40981 13.235L11.9215 13.4797L11.726 7.56445L7.94413 10.9141Z" fill="#E4761B"/>
<path d="M19.0848 10.881L15.1677 7.38574L15.0371 13.5326L20.6818 13.2815L19.0848 10.881Z" fill="#E4761B"/>
<path fill-rule="evenodd" clip-rule="evenodd" d="M15.1471 7.33939C15.1651 7.33155 15.1861 7.3349 15.2007 7.34798L19.1179 10.8433C19.121 10.8461 19.1239 10.8494 19.1262 10.8529L20.7232 13.2534C20.7333 13.2686 20.7344 13.2879 20.7262 13.3041C20.718 13.3203 20.7017 13.3308 20.6836 13.3316L15.0389 13.5827C15.025 13.5833 15.0114 13.5781 15.0015 13.5684C14.9915 13.5587 14.986 13.5453 14.9863 13.5313L15.1169 7.38445C15.1173 7.36482 15.1291 7.34722 15.1471 7.33939ZM15.2152 7.49577L15.0881 13.4798L20.5901 13.235L19.046 10.9141L15.2152 7.49577Z" fill="#E4761B"/>
<path d="M8.22656 21.8489L11.6214 20.1916L8.68858 17.9016L8.22656 21.8489Z" fill="#E4761B"/>
<path fill-rule="evenodd" clip-rule="evenodd" d="M8.66872 17.8552C8.6855 17.8482 8.70475 17.8508 8.71908 17.862L11.6519 20.152C11.6656 20.1627 11.6728 20.1796 11.671 20.1969C11.6692 20.2141 11.6586 20.2293 11.643 20.2369L8.24817 21.8941C8.23163 21.9022 8.21201 21.9006 8.197 21.8899C8.18199 21.8793 8.17398 21.8613 8.17612 21.8431L8.63814 17.8958C8.64026 17.8777 8.65195 17.8622 8.66872 17.8552ZM8.72769 17.9964L8.28678 21.7633L11.5265 20.1818L8.72769 17.9964Z" fill="#E4761B"/>
<path d="M15.3682 20.1916L18.7731 21.8489L18.301 17.9016L15.3682 20.1916Z" fill="#E4761B"/>
<path fill-rule="evenodd" clip-rule="evenodd" d="M18.3199 17.8552C18.3366 17.8622 18.3483 17.8776 18.3505 17.8957L18.8226 21.8429C18.8247 21.8612 18.8168 21.8792 18.8018 21.8899C18.7868 21.9006 18.7671 21.9022 18.7506 21.8941L15.3457 20.2369C15.3301 20.2293 15.3195 20.2142 15.3177 20.1969C15.3158 20.1797 15.3231 20.1627 15.3367 20.152L18.2696 17.862C18.2839 17.8508 18.3031 17.8482 18.3199 17.8552ZM15.4622 20.1817L18.7117 21.7633L18.2612 17.9962L15.4622 20.1817Z" fill="#E4761B"/>
<path d="M18.7721 21.8487L15.3672 20.1914L15.6384 22.4111L15.6082 23.3452L18.7721 21.8487Z" fill="#D7C1B3"/>
<path fill-rule="evenodd" clip-rule="evenodd" d="M15.3385 20.1505C15.3535 20.1398 15.3731 20.1381 15.3897 20.1462L18.7946 21.8034C18.812 21.8119 18.823 21.8296 18.8229 21.849C18.8228 21.8683 18.8116 21.8859 18.7941 21.8942L15.6303 23.3907C15.6144 23.3982 15.5958 23.3969 15.5812 23.3873C15.5665 23.3777 15.5579 23.3611 15.5585 23.3436L15.5885 22.4134L15.3178 20.1975C15.3155 20.1792 15.3235 20.1612 15.3385 20.1505ZM15.4289 20.2772L15.6888 22.405C15.6891 22.4076 15.6893 22.4102 15.6892 22.4128L15.6617 23.2645L18.6563 21.848L15.4289 20.2772Z" fill="#D7C1B3"/>
<path d="M8.22656 21.8487L11.3904 23.3452L11.3703 22.4111L11.6214 20.1914L8.22656 21.8487Z" fill="#D7C1B3"/>
<path fill-rule="evenodd" clip-rule="evenodd" d="M11.65 20.1503C11.665 20.1609 11.673 20.1788 11.6709 20.1971L11.4202 22.4134L11.4402 23.3441C11.4406 23.3616 11.4319 23.378 11.4173 23.3874C11.4027 23.3969 11.3842 23.3982 11.3684 23.3907L8.20458 21.8942C8.1871 21.8859 8.1759 21.8683 8.17578 21.849C8.17566 21.8296 8.18664 21.812 8.20402 21.8035L11.5989 20.1462C11.6154 20.1382 11.635 20.1397 11.65 20.1503ZM8.34225 21.848L11.3379 23.2649L11.3195 22.4122C11.3195 22.41 11.3196 22.4077 11.3199 22.4055L11.5606 20.2769L8.34225 21.848Z" fill="#D7C1B3"/>
<path d="M11.4408 16.4351L8.6084 15.6015L10.6071 14.6875L11.4408 16.4351Z" fill="#233447"/>
<path fill-rule="evenodd" clip-rule="evenodd" d="M10.5858 14.6418C10.6107 14.6304 10.6403 14.6411 10.6521 14.6659L11.4857 16.4135C11.4943 16.4314 11.4915 16.4527 11.4786 16.4678C11.4657 16.4829 11.4452 16.489 11.4261 16.4834L8.59373 15.6498C8.57358 15.6439 8.55924 15.6261 8.55775 15.6051C8.55625 15.5842 8.56791 15.5645 8.58701 15.5558L10.5858 14.6418ZM8.75132 15.5913L11.3464 16.3551L10.5826 14.7539L8.75132 15.5913Z" fill="#233447"/>
<path d="M15.5488 16.4351L16.3825 14.6875L18.3913 15.6015L15.5488 16.4351Z" fill="#233447"/>
<path fill-rule="evenodd" clip-rule="evenodd" d="M16.3376 14.6659C16.3494 14.6411 16.3789 14.6304 16.4038 14.6417L18.4126 15.5557C18.4317 15.5644 18.4435 15.5841 18.442 15.6051C18.4405 15.6261 18.4261 15.6439 18.4059 15.6498L15.5635 16.4835C15.5445 16.489 15.5239 16.4829 15.511 16.4678C15.4982 16.4527 15.4954 16.4314 15.5039 16.4135L16.3376 14.6659ZM16.4071 14.7538L15.6432 16.3552L18.2478 15.5913L16.4071 14.7538Z" fill="#233447"/>
<path d="M8.22707 21.8488L8.70918 17.771L5.56543 17.8614L8.22707 21.8488Z" fill="#CD6116"/>
<path fill-rule="evenodd" clip-rule="evenodd" d="M8.74584 17.7371C8.75571 17.7478 8.7604 17.7624 8.75868 17.7769L8.27657 21.8548C8.2741 21.8757 8.25884 21.8929 8.23835 21.8978C8.21785 21.9027 8.19646 21.8943 8.18476 21.8768L5.52312 17.8893C5.51295 17.8741 5.51186 17.8546 5.52026 17.8383C5.52866 17.8221 5.54522 17.8116 5.56352 17.8111L8.70727 17.7207C8.72189 17.7203 8.73597 17.7263 8.74584 17.7371ZM5.65728 17.9091L8.19267 21.7074L8.65191 17.823L5.65728 17.9091Z" fill="#CD6116"/>
<path d="M18.291 17.771L18.7731 21.8488L21.4348 17.8614L18.291 17.771Z" fill="#CD6116"/>
<path fill-rule="evenodd" clip-rule="evenodd" d="M18.2534 17.7371C18.2633 17.7263 18.2774 17.7203 18.292 17.7207L21.4358 17.8111C21.454 17.8116 21.4706 17.8221 21.479 17.8383C21.4874 17.8546 21.4863 17.8741 21.4762 17.8893L18.8145 21.8768C18.8028 21.8943 18.7814 21.9027 18.7609 21.8978C18.7404 21.8929 18.7252 21.8757 18.7227 21.8548L18.2406 17.7769C18.2389 17.7624 18.2436 17.7478 18.2534 17.7371ZM18.3474 17.823L18.8066 21.7074L21.342 17.9091L18.3474 17.823Z" fill="#CD6116"/>
<path d="M20.6808 13.2812L15.0361 13.5323L15.5584 16.435L16.3921 14.6874L18.4009 15.6014L20.6808 13.2812Z" fill="#CD6116"/>
<path fill-rule="evenodd" clip-rule="evenodd" d="M20.7273 13.2608C20.7357 13.2797 20.7317 13.3018 20.7172 13.3165L18.4373 15.6367C18.4224 15.6518 18.3998 15.656 18.3805 15.6472L16.4167 14.7537L15.6043 16.4567C15.5949 16.4764 15.5739 16.4878 15.5522 16.4849C15.5306 16.482 15.5133 16.4655 15.5094 16.444L14.9871 13.5413C14.9846 13.527 14.9883 13.5123 14.9973 13.501C15.0064 13.4896 15.0199 13.4828 15.0344 13.4821L20.6791 13.231C20.6998 13.2301 20.7189 13.2419 20.7273 13.2608ZM15.0963 13.5801L15.5808 16.2724L16.3472 14.6658C16.359 14.641 16.3884 14.6303 16.4134 14.6416L18.3902 15.541L20.5558 13.3372L15.0963 13.5801Z" fill="#CD6116"/>
<path d="M8.60838 15.6014L10.6172 14.6874L11.4408 16.435L11.9731 13.5323L6.31836 13.2812L8.60838 15.6014Z" fill="#CD6116"/>
<path fill-rule="evenodd" clip-rule="evenodd" d="M6.27191 13.2608C6.28032 13.2419 6.29945 13.2301 6.32013 13.231L11.9749 13.4821C11.9894 13.4828 12.0029 13.4897 12.012 13.501C12.0211 13.5124 12.0247 13.5271 12.0221 13.5414L11.4898 16.4441C11.4859 16.4656 11.4685 16.4821 11.4468 16.485C11.4251 16.4878 11.4041 16.4763 11.3948 16.4565L10.5924 14.7538L8.62875 15.6472C8.60954 15.656 8.58693 15.6518 8.5721 15.6368L6.28208 13.3166C6.26755 13.3019 6.26351 13.2798 6.27191 13.2608ZM6.44382 13.3372L8.61905 15.5411L10.5959 14.6416C10.6209 14.6302 10.6505 14.6411 10.6622 14.666L11.4191 16.272L11.9127 13.5801L6.44382 13.3372Z" fill="#CD6116"/>
<path d="M6.31934 13.2812L8.6897 17.9015L8.60935 15.6014L6.31934 13.2812Z" fill="#E4751F"/>
<path fill-rule="evenodd" clip-rule="evenodd" d="M6.28938 13.2405C6.3095 13.2259 6.33724 13.2283 6.35468 13.2459L8.6447 15.5661C8.65357 15.5751 8.65873 15.5871 8.65918 15.5997L8.73953 17.8997C8.74035 17.9233 8.72472 17.9442 8.70191 17.9502C8.6791 17.9561 8.65523 17.9454 8.64448 17.9245L6.27411 13.3042C6.26277 13.2821 6.26925 13.2551 6.28938 13.2405ZM6.51316 13.5497L8.63109 17.6779L8.55929 15.6228L6.51316 13.5497Z" fill="#E4751F"/>
<path d="M18.4012 15.6014L18.3008 17.9015L20.6812 13.2812L18.4012 15.6014Z" fill="#E4751F"/>
<path fill-rule="evenodd" clip-rule="evenodd" d="M20.7112 13.2405C20.7314 13.2551 20.7378 13.2822 20.7264 13.3043L18.346 17.9245C18.3352 17.9455 18.3112 17.9562 18.2884 17.9501C18.2655 17.944 18.25 17.9229 18.251 17.8993L18.3515 15.5992C18.352 15.5868 18.3571 15.575 18.3658 15.5662L20.6458 13.246C20.6633 13.2283 20.691 13.2259 20.7112 13.2405ZM18.4512 15.6229L18.3616 17.6747L20.485 13.5533L18.4512 15.6229Z" fill="#E4751F"/>
<path d="M11.9737 13.5325L11.4414 16.4352L12.1043 19.8602L12.255 15.3504L11.9737 13.5325Z" fill="#E4751F"/>
<path fill-rule="evenodd" clip-rule="evenodd" d="M11.974 13.4822C11.9985 13.4825 12.0192 13.5005 12.023 13.5248L12.3042 15.3428C12.3047 15.3459 12.3049 15.349 12.3048 15.3521L12.1541 19.8618C12.1533 19.8874 12.1333 19.9083 12.1078 19.9103C12.0823 19.9123 12.0593 19.8949 12.0544 19.8697L11.3915 16.4447C11.3904 16.4386 11.3903 16.4323 11.3915 16.4261L11.9238 13.5234C11.9282 13.4993 11.9494 13.4818 11.974 13.4822ZM11.4921 16.4349L12.0684 19.4125L12.2041 15.3535L11.9691 13.8344L11.4921 16.4349Z" fill="#E4751F"/>
<path d="M15.0368 13.5325L14.7656 15.3404L14.8862 19.8602L15.5591 16.4352L15.0368 13.5325Z" fill="#E4751F"/>
<path fill-rule="evenodd" clip-rule="evenodd" d="M15.0366 13.4822C15.0612 13.4818 15.0825 13.4993 15.0868 13.5236L15.6091 16.4263C15.6102 16.4324 15.6102 16.4387 15.609 16.4449L14.936 19.8699C14.9311 19.895 14.908 19.9125 14.8825 19.9103C14.8569 19.9082 14.8371 19.8871 14.8364 19.8615L14.7158 15.3417C14.7158 15.3388 14.7159 15.3358 14.7164 15.3329L14.9876 13.525C14.9912 13.5007 15.012 13.4825 15.0366 13.4822ZM15.0418 13.8416L14.8165 15.3435L14.9249 19.4048L15.5084 16.4348L15.0418 13.8416Z" fill="#E4751F"/>
<path d="M15.5587 16.4352L14.8857 19.8602L15.3678 20.1916L18.3007 17.9016L18.4011 15.6016L15.5587 16.4352Z" fill="#F6851B"/>
<path fill-rule="evenodd" clip-rule="evenodd" d="M18.4327 15.562C18.4454 15.572 18.4526 15.5876 18.4519 15.6038L18.3515 17.9038C18.3508 17.9186 18.3438 17.9322 18.3322 17.9413L15.3993 20.2313C15.382 20.2448 15.358 20.2456 15.3399 20.2331L14.8577 19.9017C14.8412 19.8903 14.833 19.8702 14.8369 19.8505L15.5098 16.4255C15.5134 16.4071 15.527 16.3922 15.545 16.387L18.3875 15.5533C18.4031 15.5487 18.4199 15.552 18.4327 15.562ZM15.6027 16.4749L14.942 19.8375L15.3665 20.1293L18.2519 17.8763L18.3483 15.6697L15.6027 16.4749Z" fill="#F6851B"/>
<path d="M8.6084 15.6016L8.68875 17.9016L11.6216 20.1916L12.1037 19.8602L11.4408 16.4352L8.6084 15.6016Z" fill="#F6851B"/>
<path fill-rule="evenodd" clip-rule="evenodd" d="M8.57709 15.5618C8.58987 15.5519 8.60663 15.5488 8.62214 15.5533L11.4545 16.387C11.4726 16.3923 11.4861 16.4072 11.4897 16.4257L12.1526 19.8507C12.1564 19.8703 12.1482 19.8903 12.1317 19.9017L11.6496 20.2331C11.6315 20.2456 11.6075 20.2448 11.5901 20.2313L8.65732 17.9413C8.64559 17.9321 8.63852 17.9183 8.638 17.9034L8.55765 15.6033C8.55708 15.5872 8.56432 15.5717 8.57709 15.5618ZM8.66065 15.6695L8.73775 17.8764L11.623 20.1293L12.0476 19.8374L11.3967 16.4749L8.66065 15.6695Z" fill="#F6851B"/>
<path d="M15.6089 23.3454L15.639 22.4113L15.3879 22.1904H11.6013L11.3703 22.4113L11.3904 23.3454L8.22656 21.8489L9.3314 22.7528L11.5712 24.3096H15.418L17.6679 22.7528L18.7727 21.8489L15.6089 23.3454Z" fill="#C0AD9E"/>
<path fill-rule="evenodd" clip-rule="evenodd" d="M8.18357 21.822C8.19715 21.8005 8.22463 21.7926 8.24761 21.8034L11.3379 23.2652L11.3195 22.4124C11.3192 22.3983 11.3249 22.3848 11.3351 22.375L11.5661 22.154C11.5754 22.1451 11.5879 22.1401 11.6009 22.1401H15.3874C15.3997 22.1401 15.4115 22.1445 15.4207 22.1526L15.6718 22.3736C15.683 22.3835 15.6893 22.398 15.6888 22.413L15.6613 23.2647L18.7507 21.8034C18.7737 21.7926 18.8012 21.8005 18.8148 21.822C18.8283 21.8435 18.8238 21.8717 18.8041 21.8878L17.6993 22.7918C17.6989 22.7921 17.6985 22.7924 17.6981 22.7927C17.6974 22.7933 17.6967 22.7938 17.696 22.7942L15.4462 24.351C15.4378 24.3569 15.4278 24.36 15.4176 24.36H11.5707C11.5605 24.36 11.5504 24.3568 11.542 24.351L9.30222 22.7942C9.30114 22.7934 9.30009 22.7926 9.29907 22.7918L8.19424 21.8878C8.17456 21.8717 8.16999 21.8435 8.18357 21.822ZM8.57569 22.0699L9.36127 22.7127L11.5865 24.2594H15.4018L17.6371 22.7126L18.4226 22.0699L15.6299 23.3909C15.6141 23.3984 15.5955 23.3971 15.5808 23.3875C15.5661 23.3779 15.5575 23.3614 15.5581 23.3438L15.5875 22.4335L15.3684 22.2407H11.6211L11.4206 22.4324L11.4402 23.3444C11.4406 23.3618 11.4319 23.3782 11.4173 23.3877C11.4027 23.3972 11.3842 23.3984 11.3684 23.3909L8.57569 22.0699Z" fill="#C0AD9E"/>
<path d="M15.3676 20.1916L14.8855 19.8601H12.1033L11.6212 20.1916L11.3701 22.4113L11.6011 22.1903H15.3877L15.6388 22.4113L15.3676 20.1916Z" fill="#161616"/>
<path fill-rule="evenodd" clip-rule="evenodd" d="M12.0753 19.8187C12.0837 19.8129 12.0937 19.8098 12.1038 19.8098H14.886C14.8962 19.8098 14.9061 19.8129 14.9145 19.8187L15.3966 20.1501C15.4085 20.1583 15.4163 20.1712 15.4181 20.1855L15.6892 22.4052C15.6918 22.4259 15.6812 22.446 15.6628 22.4558C15.6443 22.4655 15.6217 22.4629 15.6061 22.4491L15.3692 22.2406H11.6218L11.4054 22.4476C11.3901 22.4623 11.3673 22.4658 11.3483 22.4564C11.3293 22.447 11.3183 22.4267 11.3206 22.4056L11.5717 20.1859C11.5734 20.1714 11.5812 20.1584 11.5932 20.1501L12.0753 19.8187ZM12.1195 19.9104L11.6691 20.22L11.4362 22.2789L11.5669 22.154C11.5762 22.145 11.5887 22.14 11.6016 22.14H15.3882C15.4004 22.14 15.4123 22.1445 15.4214 22.1525L15.5733 22.2862L15.3209 20.2202L14.8704 19.9104H12.1195Z" fill="#161616"/>
<path d="M25.4523 8.47026L26.306 4.37233L25.0304 0.565674L15.3682 7.73705L19.0844 10.8808L24.3374 12.4175L25.5025 11.0616L25.0003 10.7L25.8038 9.9668L25.1811 9.4847L25.9846 8.87201L25.4523 8.47026Z" fill="#763D16"/>
<path fill-rule="evenodd" clip-rule="evenodd" d="M25.046 0.517696C25.0614 0.522527 25.0735 0.53443 25.0787 0.549709L26.3542 4.35636C26.3571 4.36482 26.3576 4.37388 26.3558 4.38261L25.5085 8.44932L26.0154 8.83187C26.028 8.84136 26.0354 8.85617 26.0354 8.87191C26.0355 8.88765 26.0281 8.9025 26.0156 8.91204L25.2642 9.48502L25.8351 9.92704C25.8469 9.93613 25.854 9.94995 25.8546 9.96479C25.8552 9.97963 25.8492 9.99398 25.8382 10.004L25.0805 10.6954L25.5324 11.0208C25.5438 11.029 25.5513 11.0417 25.553 11.0557C25.5546 11.0697 25.5504 11.0837 25.5412 11.0944L24.3761 12.4503C24.3632 12.4653 24.3427 12.4714 24.3238 12.4658L19.0708 10.9291C19.0641 10.9271 19.0578 10.9238 19.0524 10.9192L15.3362 7.77548C15.3244 7.76556 15.3179 7.75082 15.3184 7.73547C15.3189 7.72011 15.3264 7.70582 15.3387 7.69667L25.001 0.525293C25.0139 0.515689 25.0307 0.512864 25.046 0.517696ZM15.4496 7.73965L19.1093 10.8355L24.3209 12.3601L25.4291 11.0704L24.9714 10.7409C24.9591 10.732 24.9515 10.7181 24.9506 10.7029C24.9497 10.6878 24.9557 10.6731 24.9669 10.6629L25.7262 9.96999L25.1508 9.5245C25.1384 9.51493 25.1312 9.50016 25.1313 9.48453C25.1313 9.4689 25.1387 9.45418 25.1511 9.44471L25.9019 8.87224L25.4225 8.51044C25.4069 8.49871 25.3996 8.47907 25.4035 8.46002L26.2545 4.37542L25.0053 0.647415L15.4496 7.73965Z" fill="#763D16"/>
<path d="M0.694336 4.37233L1.54807 8.47026L1.0057 8.87201L1.80921 9.4847L1.19653 9.9668L2.00005 10.7L1.49785 11.0616L2.6529 12.4175L7.90589 10.8808L11.6221 7.73705L1.95987 0.565674L0.694336 4.37233Z" fill="#763D16"/>
<path fill-rule="evenodd" clip-rule="evenodd" d="M1.94427 0.517714C1.95965 0.512858 1.97644 0.515677 1.98939 0.525293L11.6517 7.69667C11.664 7.70583 11.6715 7.72012 11.672 7.73547C11.6725 7.75083 11.6659 7.76556 11.6542 7.77549L7.93792 10.9192C7.93255 10.9238 7.92629 10.9271 7.91955 10.9291L2.66657 12.4658C2.64753 12.4714 2.627 12.4653 2.61414 12.4502L1.45908 11.0942C1.44997 11.0835 1.44574 11.0695 1.44744 11.0556C1.44913 11.0416 1.45658 11.029 1.46799 11.0208L1.91988 10.6954L1.16215 10.004C1.15123 9.99403 1.14525 9.97977 1.14579 9.96499C1.14632 9.95022 1.15333 9.93643 1.16495 9.92729L1.72659 9.48534L0.974724 8.91205C0.962144 8.90246 0.954808 8.88751 0.954918 8.87169C0.955028 8.85587 0.962572 8.84102 0.975283 8.83161L1.49178 8.44902L0.644612 4.38261C0.642801 4.37392 0.643323 4.3649 0.646124 4.35648L1.91166 0.549823C1.91675 0.534511 1.92888 0.522569 1.94427 0.517714ZM1.98523 0.647518L0.745891 4.37536L1.59686 8.46002C1.60086 8.47924 1.59333 8.49903 1.57755 8.51071L1.08898 8.87262L1.83925 9.44471C1.85163 9.45414 1.85894 9.46877 1.85906 9.48434C1.85918 9.4999 1.85209 9.51464 1.83986 9.52426L1.27382 9.96967L2.0335 10.6629C2.04469 10.6731 2.05069 10.6878 2.04981 10.7029C2.04894 10.7181 2.04128 10.732 2.02898 10.7409L1.57109 11.0705L2.6696 12.3601L7.88107 10.8355L11.5407 7.73965L1.98523 0.647518Z" fill="#763D16"/>
<path d="M24.3372 12.4176L19.0842 10.8809L20.6812 13.2814L18.3008 17.9016L21.4345 17.8614H26.1049L24.3372 12.4176Z" fill="#F6851B"/>
<path fill-rule="evenodd" clip-rule="evenodd" d="M19.0432 10.8511C19.0557 10.834 19.0776 10.8267 19.0979 10.8326L24.3509 12.3693C24.3668 12.374 24.3794 12.3862 24.3846 12.4021L26.1523 17.8459C26.1573 17.8612 26.1546 17.878 26.1452 17.891C26.1357 17.904 26.1206 17.9117 26.1045 17.9117H21.434L18.301 17.9519C18.2833 17.9521 18.2668 17.9431 18.2575 17.9281C18.2482 17.913 18.2475 17.8943 18.2556 17.8786L20.6225 13.2846L19.0418 10.9088C19.0301 10.8911 19.0307 10.8681 19.0432 10.8511ZM19.2021 10.9679L20.7226 13.2535C20.7327 13.2687 20.7338 13.2882 20.7255 13.3044L18.3834 17.8502L21.434 17.8111L26.0352 17.8111L24.2971 12.4584L19.2021 10.9679Z" fill="#F6851B"/>
<path d="M7.9059 10.8809L2.65292 12.4176L0.905273 17.8614H5.56566L8.68933 17.9016L6.31896 13.2814L7.9059 10.8809Z" fill="#F6851B"/>
<path fill-rule="evenodd" clip-rule="evenodd" d="M7.94592 10.851C7.95846 10.868 7.95905 10.891 7.94741 10.9086L6.37669 13.2846L8.73363 17.8786C8.74168 17.8943 8.74092 17.9131 8.73163 17.9281C8.72233 17.9431 8.70586 17.9521 8.68821 17.9519L5.5652 17.9117H0.904807C0.888732 17.9117 0.873625 17.9041 0.864154 17.8911C0.854683 17.8781 0.851987 17.8613 0.856901 17.846L2.60455 12.4022C2.60965 12.3863 2.6223 12.374 2.63833 12.3693L7.89131 10.8326C7.91157 10.8267 7.93339 10.834 7.94592 10.851ZM2.6922 12.4584L0.973803 17.8111H5.56584L8.60595 17.8502L6.27372 13.3044C6.26543 13.2882 6.2665 13.2688 6.27652 13.2536L7.78769 10.9678L2.6922 12.4584Z" fill="#F6851B"/>
<path d="M15.0358 13.5325L15.3672 7.73719L16.8939 3.60913H10.1143L11.6208 7.73719L11.9724 13.5325L12.0929 15.3605L12.103 19.8602H14.8851L14.9052 15.3605L15.0358 13.5325Z" fill="#F6851B"/>
<path fill-rule="evenodd" clip-rule="evenodd" d="M10.0735 3.58007C10.083 3.56661 10.0983 3.55859 10.1148 3.55859H16.8944C16.9109 3.55859 16.9263 3.56665 16.9357 3.58016C16.9451 3.59366 16.9473 3.61092 16.9416 3.62636L15.4175 7.74736L15.0865 13.5352L15.0865 13.5359L14.956 15.3622L14.936 19.8602C14.9358 19.8879 14.9133 19.9103 14.8856 19.9103H12.1035C12.0757 19.9103 12.0532 19.8879 12.0532 19.8601L12.0431 15.362L11.9227 13.5356L11.9227 13.5354L11.5716 7.74733L10.0675 3.62616C10.0619 3.61073 10.0641 3.59352 10.0735 3.58007ZM10.1867 3.65922L11.6686 7.71972C11.6703 7.72429 11.6713 7.72907 11.6716 7.73392L12.0231 13.529L12.0231 13.5293L12.1436 15.357C12.1437 15.3581 12.1437 15.3591 12.1437 15.3602L12.1537 19.8097H14.8355L14.8554 15.3601C14.8554 15.3596 14.8554 15.359 14.8554 15.3585C14.8555 15.3579 14.8555 15.3573 14.8555 15.3567L14.9861 13.5295L14.9861 13.5287L15.3175 7.7341C15.3178 7.72911 15.3188 7.7242 15.3206 7.71952L16.8222 3.65922H10.1867Z" fill="#F6851B"/>
</svg>
