<svg width="20" height="20" viewBox="0 0 20 20" fill="none" xmlns="http://www.w3.org/2000/svg">
<path d="M9.50854 12.016C9.44758 12.016 9.39425 11.9919 9.34854 11.9436C9.30282 11.8953 9.27996 11.839 9.27996 11.7746V11.3883C9.31806 11.01 9.42854 10.68 9.61139 10.3983C9.80187 10.1086 10.0685 9.77862 10.4114 9.4084C10.6628 9.15085 10.8533 8.92953 10.9828 8.74441C11.1123 8.5593 11.1885 8.37017 11.2114 8.17701C11.2419 7.84703 11.139 7.58546 10.9028 7.3923C10.6666 7.19109 10.3809 7.09049 10.0457 7.09049C9.29901 7.09049 8.84949 7.48083 8.69711 8.26152C8.64377 8.44663 8.5333 8.53918 8.36568 8.53918H7.39425C7.31806 8.53918 7.25711 8.51504 7.21139 8.46675C7.16568 8.41041 7.14282 8.33798 7.14282 8.24945C7.15806 7.80679 7.28377 7.3923 7.51997 7.00598C7.75616 6.61967 8.09901 6.30981 8.54854 6.07641C8.99806 5.83496 9.52377 5.71423 10.1257 5.71423C10.7581 5.71423 11.2762 5.82289 11.68 6.04019C12.0914 6.24945 12.3885 6.51906 12.5714 6.84904C12.7619 7.17902 12.8571 7.52107 12.8571 7.8752C12.8571 8.28566 12.7695 8.63979 12.5942 8.93757C12.4266 9.22731 12.1714 9.56534 11.8285 9.95166C11.5847 10.2333 11.3942 10.4748 11.2571 10.676C11.1276 10.8692 11.04 11.0784 10.9943 11.3038C10.9638 11.505 10.9447 11.6418 10.9371 11.7142C10.8762 11.9154 10.7733 12.016 10.6285 12.016H9.50854ZM9.47425 14.2857C9.39806 14.2857 9.3333 14.2575 9.27996 14.2012C9.22663 14.1448 9.19996 14.0764 9.19996 13.9959V12.9456C9.19996 12.8651 9.22663 12.7967 9.27996 12.7404C9.3333 12.676 9.39806 12.6438 9.47425 12.6438H10.5828C10.6666 12.6438 10.7352 12.672 10.7885 12.7283C10.8419 12.7847 10.8685 12.8571 10.8685 12.9456V13.9959C10.8685 14.0764 10.8419 14.1448 10.7885 14.2012C10.7352 14.2575 10.6666 14.2857 10.5828 14.2857H9.47425Z" fill="#B3B4CA"/>
<rect x="0.5" y="0.5" width="19" height="19" rx="9.5" stroke="#B3B4CA"/>
</svg>
