<svg width="42" height="59" viewBox="0 0 42 59" fill="none" xmlns="http://www.w3.org/2000/svg">
<path opacity="0.47" d="M17.4135 43.1001C16.9741 43.1001 16.5896 42.937 16.2601 42.6109C15.9305 42.2847 15.7658 41.9042 15.7658 41.4693V38.8601C16.0404 36.3053 16.8368 34.0766 18.1549 32.174C19.528 30.2171 21.4503 27.9884 23.9218 25.4879C25.7343 23.7484 27.1074 22.2536 28.0411 21.0033C28.9748 19.7531 29.524 18.4757 29.6888 17.1711C29.9085 14.9424 29.167 13.1757 27.4644 11.8711C25.7618 10.5121 23.7022 9.83266 21.2855 9.83266C15.9031 9.83266 12.6626 12.4691 11.5642 17.7418C11.1797 18.9921 10.3833 19.6172 9.17501 19.6172H2.17232C1.62309 19.6172 1.18371 19.4541 0.85417 19.128C0.524632 18.7475 0.359863 18.2582 0.359863 17.6603C0.469709 14.6706 1.37594 11.8711 3.07855 9.2619C4.78117 6.65269 7.2527 4.55989 10.4932 2.98349C13.7336 1.35273 17.5233 0.537354 21.8622 0.537354C26.4208 0.537354 30.1556 1.27119 33.0665 2.73887C36.0324 4.1522 38.1744 5.97321 39.4925 8.2019C40.8656 10.4306 41.5521 12.7408 41.5521 15.1326C41.5521 17.9049 40.9205 20.2967 39.6573 22.3079C38.449 24.2649 36.6091 26.5479 34.1375 29.1571C32.38 31.0597 31.0069 32.6904 30.0183 34.0494C29.0846 35.354 28.453 36.7673 28.1235 38.2894C27.9038 39.6483 27.7665 40.5724 27.7115 41.0616C27.2721 42.4206 26.5307 43.1001 25.4871 43.1001H17.4135ZM17.1663 58.4292C16.6171 58.4292 16.1502 58.2389 15.7658 57.8584C15.3813 57.4779 15.1891 57.0159 15.1891 56.4723V49.3785C15.1891 48.8349 15.3813 48.3729 15.7658 47.9923C16.1502 47.5575 16.6171 47.3401 17.1663 47.3401H25.1576C25.7618 47.3401 26.2561 47.5303 26.6405 47.9108C27.025 48.2913 27.2172 48.7806 27.2172 49.3785V56.4723C27.2172 57.0159 27.025 57.4779 26.6405 57.8584C26.2561 58.2389 25.7618 58.4292 25.1576 58.4292H17.1663Z" fill="url(#paint0_linear_175_7317)"/>
<defs>
<linearGradient id="paint0_linear_175_7317" x1="3.34757" y1="16.9758" x2="55.9845" y2="18.3134" gradientUnits="userSpaceOnUse">
<stop stop-color="#FFAB5D"/>
<stop offset="1" stop-color="#FEE97B"/>
</linearGradient>
</defs>
</svg>
