<svg width="17" height="12" viewBox="0 0 17 12" fill="none" xmlns="http://www.w3.org/2000/svg">
<path d="M12.0341 5.00002H15.9661C16.0136 5.00004 16.0601 5.01359 16.1002 5.03909C16.1403 5.06459 16.1722 5.10098 16.1924 5.144C16.2125 5.18702 16.22 5.23489 16.2139 5.282C16.2079 5.32912 16.1885 5.37352 16.1581 5.41002L14.1921 7.77002C14.1686 7.79816 14.1393 7.82079 14.1061 7.83633C14.0729 7.85186 14.0367 7.85991 14.0001 7.85991C13.9635 7.85991 13.9273 7.85186 13.8941 7.83633C13.8609 7.82079 13.8315 7.79816 13.8081 7.77002L11.8421 5.41002C11.8117 5.37352 11.7923 5.32912 11.7862 5.282C11.7802 5.23489 11.7876 5.18702 11.8078 5.144C11.8279 5.10098 11.8599 5.06459 11.9 5.03909C11.9401 5.01359 11.9866 5.00004 12.0341 5.00002ZM1.03409 7.00002H4.96609C5.01359 7.00001 5.06011 6.98645 5.10019 6.96096C5.14027 6.93546 5.17225 6.89907 5.1924 6.85605C5.21254 6.81303 5.22002 6.76516 5.21394 6.71804C5.20786 6.67093 5.18849 6.62652 5.15809 6.59002L3.19209 4.23002C3.16862 4.20189 3.13926 4.17925 3.10609 4.16372C3.07291 4.14819 3.03672 4.14014 3.00009 4.14014C2.96345 4.14014 2.92726 4.14819 2.89409 4.16372C2.86091 4.17925 2.83155 4.20189 2.80809 4.23002L0.842086 6.59002C0.811684 6.62652 0.79231 6.67093 0.786234 6.71804C0.780157 6.76516 0.787629 6.81303 0.807775 6.85605C0.827921 6.89907 0.859907 6.93546 0.899987 6.96096C0.940067 6.98645 0.986583 7.00001 1.03409 7.00002Z" fill="#4E55FF"/>
<path fill-rule="evenodd" clip-rule="evenodd" d="M8.50001 1.00023C6.94801 1.00023 5.56001 1.70723 4.64301 2.81823C4.60206 2.87131 4.55086 2.9156 4.49245 2.94849C4.43404 2.98138 4.36961 3.00219 4.303 3.00968C4.23638 3.01717 4.16895 3.01119 4.10469 2.99209C4.04043 2.97299 3.98068 2.94117 3.92897 2.89851C3.87726 2.85586 3.83465 2.80324 3.80368 2.74379C3.77272 2.68434 3.75402 2.61926 3.74871 2.55244C3.74339 2.48562 3.75157 2.41841 3.77275 2.35481C3.79394 2.29121 3.82769 2.23252 3.87201 2.18223C4.6042 1.29576 5.5756 0.638244 6.67067 0.287888C7.76575 -0.062467 8.93841 -0.0909171 10.0492 0.205922C11.16 0.502761 12.1621 1.1124 12.9364 1.96232C13.7107 2.81224 14.2246 3.86668 14.417 5.00023H13.4C13.1691 3.87104 12.5554 2.85623 11.6625 2.12738C10.7697 1.39853 9.65256 1.00037 8.50001 1.00023ZM3.60001 7.00023C3.78932 7.92486 4.23636 8.77705 4.88949 9.45837C5.54261 10.1397 6.37517 10.6223 7.29097 10.8505C8.20677 11.0787 9.16845 11.0431 10.0649 10.7479C10.9613 10.4527 11.756 9.90993 12.357 9.18223C12.398 9.12916 12.4492 9.08486 12.5076 9.05197C12.566 9.01908 12.6304 8.99828 12.697 8.99079C12.7636 8.9833 12.8311 8.98928 12.8953 9.00838C12.9596 9.02747 13.0193 9.0593 13.0711 9.10195C13.1228 9.14461 13.1654 9.19723 13.1963 9.25668C13.2273 9.31613 13.246 9.3812 13.2513 9.44802C13.2566 9.51484 13.2484 9.58205 13.2273 9.64565C13.2061 9.70925 13.1723 9.76794 13.128 9.81823C12.3958 10.7047 11.4244 11.3622 10.3293 11.7126C9.23427 12.0629 8.06161 12.0914 6.95083 11.7945C5.84006 11.4977 4.83791 10.8881 4.0636 10.0381C3.28928 9.18822 2.77538 8.13378 2.58301 7.00023H3.60001Z" fill="#4E55FF"/>
</svg>
