<svg width="20" height="20" viewBox="0 0 20 20" fill="none" xmlns="http://www.w3.org/2000/svg">
<rect width="20" height="20" rx="10" fill="white"/>
<path d="M11.436 13.592C10.948 13.576 10.496 13.528 10.08 13.448C9.672 13.368 9.316 13.26 9.012 13.124V11.78C9.316 11.924 9.692 12.056 10.14 12.176C10.588 12.296 11.02 12.364 11.436 12.38V10.34C10.996 10.18 10.62 10.024 10.308 9.872C9.996 9.712 9.744 9.544 9.552 9.368C9.368 9.184 9.228 8.98 9.132 8.756C9.044 8.532 9 8.276 9 7.988C9 7.588 9.1 7.244 9.3 6.956C9.508 6.668 9.796 6.44 10.164 6.272C10.532 6.096 10.956 5.992 11.436 5.96V5H12.228V5.936C12.668 5.952 13.076 6.004 13.452 6.092C13.828 6.18 14.188 6.296 14.532 6.44L14.064 7.628C13.768 7.508 13.46 7.412 13.14 7.34C12.828 7.26 12.524 7.208 12.228 7.184V9.176C12.692 9.328 13.112 9.496 13.488 9.68C13.872 9.864 14.172 10.096 14.388 10.376C14.612 10.648 14.724 11.004 14.724 11.444C14.724 12.02 14.512 12.496 14.088 12.872C13.664 13.248 13.044 13.476 12.228 13.556V14.804H11.436V13.592ZM12.228 12.332C12.572 12.284 12.824 12.192 12.984 12.056C13.152 11.92 13.236 11.744 13.236 11.528C13.236 11.384 13.2 11.26 13.128 11.156C13.064 11.052 12.956 10.96 12.804 10.88C12.66 10.792 12.468 10.708 12.228 10.628V12.332ZM11.436 7.208C11.228 7.232 11.052 7.276 10.908 7.34C10.772 7.404 10.668 7.488 10.596 7.592C10.524 7.696 10.488 7.816 10.488 7.952C10.488 8.096 10.516 8.224 10.572 8.336C10.636 8.44 10.736 8.536 10.872 8.624C11.016 8.712 11.204 8.796 11.436 8.876V7.208Z" fill="#4145AD"/>
<path d="M5.32777 10.5817C5.07029 10.4423 4.85456 10.3508 4.68058 10.3072C4.50661 10.2549 4.34308 10.2288 4.18998 10.2288C3.99513 10.2288 3.78984 10.3028 3.57411 10.451C3.35839 10.5991 3.16701 10.7821 3 11V9.69281C3.16701 9.46623 3.35839 9.2963 3.57411 9.18301C3.78984 9.061 4.02644 9 4.28392 9C4.48573 9 4.68754 9.02614 4.88935 9.07843C5.09116 9.13072 5.3556 9.24401 5.68267 9.4183C5.93319 9.55773 6.14544 9.6536 6.31942 9.70588C6.49339 9.74946 6.65692 9.77124 6.81002 9.77124C7.01183 9.77124 7.21712 9.69717 7.42589 9.54902C7.64161 9.40087 7.83299 9.21786 8 9V10.2941C7.83299 10.5207 7.64161 10.695 7.42589 10.817C7.21016 10.939 6.97356 11 6.71608 11C6.52122 11 6.31942 10.9739 6.11065 10.9216C5.90884 10.8606 5.64788 10.7473 5.32777 10.5817Z" fill="#4145AD"/>
</svg>
