<svg width="20" height="20" viewBox="0 0 20 20" fill="none" xmlns="http://www.w3.org/2000/svg">
<rect width="20" height="20" rx="10" fill="white"/>
<path d="M14.6574 11.325C15.1002 10.6305 15.3348 9.82367 15.3334 9C15.3334 6.60667 13.3934 4.66667 11.0001 4.66667C10.1444 4.66667 9.34672 4.91467 8.67506 5.34233C8.22806 5.36741 7.78562 5.44551 7.35706 5.575C7.68282 5.22868 8.0561 4.93037 8.46572 4.689C9.22869 4.23942 10.0978 4.00157 10.9834 4H11.0001C13.7614 4 16.0001 6.23867 16.0001 9C16.0001 9.045 15.9994 9.08967 15.9984 9.13433L15.9977 9.15033C15.9739 9.99025 15.7376 10.8104 15.3111 11.5343C15.0697 11.944 14.7714 12.3173 14.4251 12.643C14.5521 12.222 14.6317 11.7807 14.6574 11.325Z" fill="#222566"/>
<path fill-rule="evenodd" clip-rule="evenodd" d="M14 11C14 13.7613 11.7613 16 9 16C6.23867 16 4 13.7613 4 11C4 8.23867 6.23867 6 9 6C11.7613 6 14 8.23867 14 11ZM13.3333 11C13.3333 13.3933 11.3933 15.3333 9 15.3333C6.60667 15.3333 4.66667 13.3933 4.66667 11C4.66667 8.60667 6.60667 6.66667 9 6.66667C11.3933 6.66667 13.3333 8.60667 13.3333 11Z" fill="#222566"/>
</svg>
