<svg width="20" height="22" viewBox="0 0 20 22" fill="none" xmlns="http://www.w3.org/2000/svg">
<path d="M9.15232 1.22774L1.85767 5.38743C1.33348 5.68743 1.00946 6.24049 1.00946 6.8388V15.1599C1.00946 15.7582 1.33348 16.3112 1.85767 16.6112L9.15232 20.7726C9.67651 21.0726 10.3245 21.0726 10.8487 20.7726L18.1434 16.6112C18.6676 16.3112 18.9916 15.7582 18.9916 15.1599V6.8388C18.9916 6.24049 18.6676 5.68743 18.1434 5.38743L10.8487 1.22774C10.3245 0.927748 9.67651 0.927748 9.15232 1.22774V1.22774Z" fill="white"/>
<path d="M10 21.5C9.6183 21.5 9.23661 21.4028 8.89732 21.2084L1.60268 17.047C0.92241 16.6599 0.5 15.9375 0.5 15.1616V6.83884C0.5 6.06288 0.922411 5.34055 1.60268 4.95173L8.89732 0.790357C9.57759 0.403214 10.4224 0.403214 11.1027 0.790357L18.3973 4.95173C19.0776 5.33887 19.5 6.06288 19.5 6.83884V15.1599C19.5 15.9359 19.0776 16.6582 18.3973 17.047L11.1027 21.2084C10.7634 21.4028 10.3817 21.5 10 21.5H10ZM9.40625 1.66352L2.11161 5.82489C1.74518 6.03439 1.51786 6.4232 1.51786 6.84052V15.1616C1.51786 15.5789 1.74518 15.9694 2.11161 16.1772L9.40625 20.3386C9.77268 20.5481 10.2273 20.5481 10.5938 20.3386L17.8884 16.1772C18.2548 15.9677 18.4821 15.5789 18.4821 15.1616V6.83884C18.4821 6.42153 18.2548 6.03103 17.8884 5.82322L10.5938 1.66185C10.2273 1.45403 9.77268 1.45403 9.40625 1.66352L9.40625 1.66352Z" fill="white"/>
<path d="M7.11668 16.5308C6.9182 16.5308 6.73329 16.4151 6.65016 16.2308L3.89347 10.0398V14.352C3.89347 14.6303 3.66615 14.8548 3.38454 14.8548C3.10293 14.8548 2.87561 14.6303 2.87561 14.352V7.64827C2.87561 7.41029 3.04356 7.20582 3.27936 7.15554C3.51686 7.10694 3.75266 7.22761 3.84936 7.44548L6.60775 13.6364V5.97233C6.60775 5.69412 6.83508 5.46954 7.11668 5.46954C7.39829 5.46954 7.62561 5.69412 7.62561 5.97233V16.028C7.62561 16.266 7.45766 16.4704 7.22186 16.5207C7.18623 16.5274 7.15061 16.5308 7.11668 16.5308V16.5308Z" fill="#878CFF"/>
<path d="M17.2106 6.98466L10.2553 3.0177C10.0975 2.9272 9.90411 2.9272 9.74635 3.0177C9.58858 3.10821 9.49188 3.27412 9.49188 3.45345V18.5487C9.49188 18.8269 9.7192 19.0515 10.0008 19.0515C10.2824 19.0515 10.5097 18.8269 10.5097 18.5487V11.503H12.5455C12.8271 11.503 13.0544 11.2784 13.0544 11.0002C13.0544 10.722 12.8271 10.4974 12.5455 10.4974H10.5097V4.32326L14.7576 6.74668C14.7542 6.76847 14.7508 6.78858 14.7508 6.81037V15.1901C14.7508 15.4683 14.9781 15.6929 15.2597 15.6929C15.5413 15.6929 15.7687 15.4683 15.7687 15.1901V7.32321L16.7017 7.85616C16.946 7.99526 17.2564 7.91314 17.3972 7.6718C17.538 7.43047 17.4532 7.12377 17.2106 6.98467L17.2106 6.98466Z" fill="#878CFF"/>
</svg>
