<svg width="21" height="21" viewBox="0 0 21 21" fill="none" xmlns="http://www.w3.org/2000/svg">
<path fill-rule="evenodd" clip-rule="evenodd" d="M9.5 1.75C5.21979 1.75 1.75 5.21979 1.75 9.5C1.75 13.7802 5.21979 17.25 9.5 17.25C13.7802 17.25 17.25 13.7802 17.25 9.5C17.25 5.21979 13.7802 1.75 9.5 1.75ZM0.25 9.5C0.25 4.39137 4.39137 0.25 9.5 0.25C14.6086 0.25 18.75 4.39137 18.75 9.5C18.75 14.6086 14.6086 18.75 9.5 18.75C4.39137 18.75 0.25 14.6086 0.25 9.5Z" fill="#B3B4CA"/>
<path fill-rule="evenodd" clip-rule="evenodd" d="M14.9697 14.9697C15.2626 14.6768 15.7374 14.6768 16.0303 14.9697L20.5303 19.4697C20.8232 19.7626 20.8232 20.2374 20.5303 20.5303C20.2374 20.8232 19.7626 20.8232 19.4697 20.5303L14.9697 16.0303C14.6768 15.7374 14.6768 15.2626 14.9697 14.9697Z" fill="#B3B4CA"/>
</svg>
