<svg width="18" height="19" viewBox="0 0 18 19" fill="none" xmlns="http://www.w3.org/2000/svg">
<path d="M9 18.5C13.9706 18.5 18 14.4706 18 9.5C18 4.52944 13.9706 0.5 9 0.5C4.02944 0.5 0 4.52944 0 9.5C0 14.4706 4.02944 18.5 9 18.5Z" fill="#2B2D65"/>
<path fill-rule="evenodd" clip-rule="evenodd" d="M4.07426 9.40496C6.69794 8.26187 8.44747 7.50827 9.32285 7.14417C11.8223 6.10458 12.3416 5.924 12.6801 5.91803C12.7546 5.91672 12.921 5.93517 13.0289 6.02267C13.1199 6.09655 13.145 6.19635 13.157 6.2664C13.1689 6.33645 13.1839 6.49602 13.172 6.6207C13.0366 8.04381 12.4505 11.4973 12.1523 13.0912C12.0262 13.7657 11.7778 13.9918 11.5373 14.0139C11.0146 14.062 10.6178 13.6685 10.1115 13.3367C9.31943 12.8175 8.87193 12.4942 8.10305 11.9876C7.21446 11.402 7.79049 11.0802 8.29689 10.5542C8.42942 10.4165 10.7322 8.32198 10.7768 8.13197C10.7824 8.10821 10.7875 8.01963 10.7349 7.97285C10.6823 7.92608 10.6046 7.94207 10.5486 7.9548C10.4691 7.97283 9.2037 8.80922 6.75232 10.464C6.39313 10.7106 6.06779 10.8308 5.7763 10.8245C5.45496 10.8176 4.83681 10.6428 4.37729 10.4934C3.81366 10.3102 3.3657 10.2133 3.40471 9.9022C3.42503 9.74013 3.64821 9.57439 4.07426 9.40496Z" fill="white"/>
</svg>
