<svg width="18" height="15" viewBox="0 0 18 15" fill="none" xmlns="http://www.w3.org/2000/svg">
<path d="M5.66064 14.8134C12.4531 14.8134 16.1683 9.18592 16.1683 4.30576C16.1683 4.14592 16.1683 3.9868 16.1575 3.8284C16.8803 3.30561 17.5042 2.65831 18 1.9168C17.326 2.2156 16.611 2.41146 15.8789 2.49784C16.6499 2.03635 17.2269 1.31042 17.5025 0.455196C16.7776 0.885402 15.9845 1.18857 15.1574 1.3516C14.6006 0.759529 13.8642 0.367477 13.0621 0.23611C12.2601 0.104742 11.4371 0.241382 10.7205 0.624886C10.0039 1.00839 9.43367 1.61738 9.09806 2.35761C8.76245 3.09784 8.68016 3.92804 8.86392 4.71976C7.39567 4.6461 5.95932 4.26453 4.64809 3.5998C3.33686 2.93507 2.18007 2.00204 1.2528 0.861276C0.780546 1.67427 0.635904 2.6367 0.848325 3.55259C1.06075 4.46849 1.61426 5.26899 2.39616 5.79112C1.80842 5.7739 1.23349 5.61534 0.72 5.32888V5.37568C0.720233 6.22831 1.01539 7.05462 1.5554 7.71445C2.09542 8.37428 2.84705 8.827 3.6828 8.99584C3.13911 9.14414 2.56866 9.16581 2.01528 9.0592C2.25136 9.79294 2.71082 10.4346 3.32943 10.8944C3.94804 11.3542 4.69487 11.6093 5.46552 11.6238C4.69983 12.2257 3.82299 12.6707 2.88516 12.9333C1.94733 13.196 0.966911 13.2712 0 13.1546C1.68887 14.2383 3.65394 14.8132 5.66064 14.8106" fill="#2B2D65"/>
</svg>
