<svg width="16" height="16" viewBox="0 0 16 16" fill="none" xmlns="http://www.w3.org/2000/svg">
<path d="M8.00037 16.0003C3.58187 16.0003 0.000366211 12.4188 0.000366211 8.00031C0.000366211 3.58181 3.58187 0.000305176 8.00037 0.000305176C12.4189 0.000305176 16.0004 3.58181 16.0004 8.00031C16.0004 12.4188 12.4189 16.0003 8.00037 16.0003ZM6.05837 7.20231L8.00037 5.26031L9.94337 7.20331L11.0734 6.07331L8.00037 3.00031L4.92837 6.07231L6.05837 7.20231ZM3.00037 8.00031L4.13037 9.13031L5.26037 8.00031L4.13037 6.87031L3.00037 8.00031ZM6.05837 8.79831L4.92687 9.92681L4.92837 9.92831L8.00037 13.0003L11.0734 9.92731V9.92681L9.94337 8.79681L8.00037 10.7403L6.05837 8.79831ZM10.7404 8.00031L11.8704 9.13031L13.0004 8.00031L11.8704 6.87031L10.7404 8.00031ZM9.14637 7.99931H9.14687L8.00037 6.85331L7.15287 7.7003L7.05537 7.79781L6.85487 7.99881L6.85287 8.00031L6.85487 8.00181L7.99987 9.14731L9.14687 8.0008L9.14737 8.00031L9.14637 7.9998V7.99931Z" fill="#FCBD43"/>
</svg>
