<svg width="20" height="19" viewBox="0 0 20 19" fill="none" xmlns="http://www.w3.org/2000/svg">
<path d="M13.9667 4.35714V2.18571C13.9667 2.00385 13.895 1.82944 13.7675 1.70084C13.64 1.57224 13.467 1.5 13.2867 1.5H2.18C1.99965 1.5 1.82669 1.57224 1.69917 1.70084C1.57164 1.82944 1.5 2.00385 1.5 2.18571V13.3857C1.5 13.5676 1.57164 13.742 1.69917 13.8706C1.82669 13.9992 1.99965 14.0714 2.18 14.0714H6.03334" stroke="#4E55FF" stroke-width="1.5" stroke-linecap="round" stroke-linejoin="round"/>
<path d="M17.8199 17.4999H6.7132C6.53286 17.4999 6.3599 17.4277 6.23237 17.2991C6.10485 17.1705 6.0332 16.996 6.0332 16.8142V5.61418C6.0332 5.43232 6.10485 5.2579 6.23237 5.12931C6.3599 5.00071 6.53286 4.92847 6.7132 4.92847H17.8199C18.0002 4.92847 18.1732 5.00071 18.3007 5.12931C18.4282 5.2579 18.4999 5.43232 18.4999 5.61418V16.8142C18.4999 16.996 18.4282 17.1705 18.3007 17.2991C18.1732 17.4277 18.0002 17.4999 17.8199 17.4999Z" stroke="#4E55FF" stroke-width="1.5" stroke-linecap="round" stroke-linejoin="round"/>
</svg>
