<svg width="1167" height="1223" viewBox="0 0 1167 1223" fill="none" xmlns="http://www.w3.org/2000/svg">
<path opacity="0.6" d="M35.9993 7.5C75.8326 25.5 181 75.0997 263 21.4997C365.5 -45.5003 603.999 58 558.999 195.5C513.999 333 867.499 288.5 897.999 259.5C928.499 230.5 1089.9 220.703 1077 311C1055 465 -60.5011 223 3.49928 434.5C54.4789 602.97 517.499 484.5 334.999 434.5C321.499 543.5 284.499 764 560.5 743C929.219 714.945 879 679.5 897.999 673C913.199 667.8 943.5 700.5 965.5 724C1030.33 694.667 1074.24 734.5 1077 752.5C1110 968 46.4995 790 3.4993 910C-31.5001 1036 254 995 335 971C402.167 996.667 545.652 980.727 560.5 1138C574 1281 791.5 1184.5 883 1212.5C956.2 1234.9 1140.67 1212.5 1172.5 1212.5" stroke="#B3B4CA" stroke-linecap="round" stroke-linejoin="round" stroke-dasharray="10 10"/>
<path d="M529.18 75.3874C529.48 76.8975 528.032 78.1658 526.575 77.6702L516.736 74.3251C515.278 73.8295 514.903 71.9418 516.061 70.9272L523.878 64.0788C525.036 63.0642 526.858 63.6836 527.158 65.1938L529.18 75.3874Z" fill="#B3B4CA"/>
<path d="M188.712 345.657C187.348 344.944 187.267 343.021 188.566 342.196L197.34 336.626C198.64 335.801 200.345 336.692 200.41 338.23L200.847 348.613C200.912 350.152 199.287 351.183 197.923 350.47L188.712 345.657Z" fill="#B3B4CA"/>
<path d="M357.602 669.552C357.79 671.08 356.253 672.239 354.835 671.637L345.269 667.578C343.851 666.977 343.616 665.067 344.846 664.14L353.145 657.884C354.374 656.958 356.146 657.709 356.333 659.237L357.602 669.552Z" fill="#B3B4CA"/>
<path d="M164.759 868.816C163.378 868.135 163.253 866.214 164.533 865.359L173.175 859.587C174.455 858.732 176.181 859.583 176.282 861.12L176.959 871.49C177.06 873.026 175.459 874.095 174.079 873.414L164.759 868.816Z" fill="#B3B4CA"/>
<path d="M529.322 1046.86C529.723 1048.34 528.364 1049.71 526.876 1049.31L516.834 1046.64C515.346 1046.24 514.845 1044.38 515.933 1043.29L523.27 1035.93C524.357 1034.84 526.217 1035.34 526.618 1036.82L529.322 1046.86Z" fill="#B3B4CA"/>
</svg>
